<?xml version="1.0" encoding="UTF-8" standalone="no"?>
<!-- Created with Inkscape (http://www.inkscape.org/) -->

<svg
   width="63.191353mm"
   height="23.363869mm"
   viewBox="0 0 63.191353 23.363869"
   version="1.1"
   id="svg1"
   xml:space="preserve"
   xmlns="http://www.w3.org/2000/svg"
   xmlns:svg="http://www.w3.org/2000/svg"><defs
     id="defs1" /><g
     id="layer1"
     transform="translate(-69.547036,-110.71354)"><path
       style="fill:#000000"
       d="m 76.44755,134.0017 c -0.372533,-0.0585 -0.891844,-0.1939 -1.154024,-0.30076 -0.262179,-0.10686 -0.701075,-0.1943 -0.975324,-0.1943 -0.297837,0 -0.617297,-0.14191 -0.793309,-0.35242 -0.162072,-0.19383 -0.580426,-0.50017 -0.929676,-0.68077 -0.388183,-0.20073 -0.635,-0.45067 -0.635,-0.64304 0,-0.19119 -0.202818,-0.39869 -0.51683,-0.52876 -0.312514,-0.12945 -0.482713,-0.30298 -0.430528,-0.43897 0.04746,-0.1237 -0.02425,-0.33546 -0.159373,-0.47058 -0.334095,-0.33409 -1.142237,-2.61308 -1.030172,-2.90512 0.04956,-0.12915 0.02135,-0.27732 -0.06268,-0.32926 -0.155947,-0.0964 -0.170071,-0.28212 -0.212533,-2.79508 -0.02286,-1.35278 0.32528,-2.95389 0.752947,-3.46286 0.07434,-0.0885 0.13517,-0.30209 0.13517,-0.47468 0,-0.27248 0.523698,-1.13265 1.971904,-3.23885 0.782756,-1.1384 3.446241,-3.19575 5.732762,-4.42815 3.285547,-1.77086 3.045383,-1.68812 4.90028,-1.68812 1.86001,0 2.398183,0.19797 3.604922,1.32613 0.616289,0.57615 1.144306,1.94286 0.974672,2.52282 -0.110678,0.37839 -1.713192,1.99305 -1.978067,1.99305 -0.07469,0 -0.269964,0.13335 -0.433934,0.29633 -0.478787,0.47591 -1.25917,1.05833 -1.418042,1.05833 -0.203465,0 -0.184468,-0.63388 0.02284,-0.762 0.207795,-0.12842 0.226349,-1.55344 0.02187,-1.67981 -0.0811,-0.0501 -0.192452,-0.31609 -0.24744,-0.59103 -0.06792,-0.33962 -0.430653,-0.77508 -1.131329,-1.35819 -0.919153,-0.76493 -1.117896,-0.85806 -1.826893,-0.85612 -1.070157,0.003 -2.924407,0.59931 -3.303562,1.0625 -0.735113,0.89804 -2.113611,2.78033 -2.317652,3.16467 -0.122444,0.23064 -0.280306,0.64974 -0.350804,0.93133 -0.0705,0.28159 -0.24709,0.94621 -0.392426,1.47693 -0.571848,2.08818 -0.625213,4.65628 -0.136533,6.57039 0.483909,1.89542 2.139583,4.20667 3.430274,4.78851 2.300419,1.03702 4.289622,0.88313 5.6378,-0.43614 0.573566,-0.56127 0.774897,-0.91703 0.952498,-1.68311 0.123861,-0.53427 0.360215,-1.09359 0.52523,-1.24293 0.385312,-0.3487 0.961217,-0.1763 1.206045,0.36104 0.159479,0.35002 0.105008,0.49915 -0.41213,1.12831 -1.02017,1.24117 -2.490138,2.67232 -2.744799,2.67232 -0.133875,0 -0.724477,0.32712 -1.312447,0.72693 -1.947722,1.32444 -3.300849,1.72284 -4.963703,1.46146 z"
       id="path2" /><path
       d="m 87.012732,133.80985 c -0.32371,-0.32371 -0.32397,-0.32918 -0.0299,-0.6232 0.27952,-0.27952 0.40113,-0.95068 0.60593,-3.34404 0.17741,-2.07332 0.31457,-3.00086 0.51333,-3.47133 0.15684,-0.37123 0.3379,-1.14416 0.40495,-1.72869 0.0236,-0.20571 0.38012,-0.7488 0.79228,-1.20686 0.41215,-0.45806 0.88778,-1.03471 1.05695,-1.28143 0.28474,-0.41525 2.64038,-2.30236 2.874,-2.30236 0.15364,0 1.71083,-1.05639 1.84323,-1.25043 0.0628,-0.092 1.803273,0.28884 2.880382,0.24934 0.711629,-0.0261 3.340666,-0.27409 3.130676,-0.15657 -0.96211,0.53842 -2.002228,2.01727 -2.302938,3.27433 -0.0891,0.37253 -0.32046,1.24883 -0.5141,1.94733 -0.19363,0.6985 -0.40759,1.651 -0.47545,2.11667 -0.15947,1.09422 -0.15987,4.48311 -5.8e-4,4.87127 0.11349,0.27655 0.18417,0.26575 0.93134,-0.14239 0.44468,-0.24291 0.96194,-0.68154 1.14945,-0.97472 0.187508,-0.29318 0.473258,-0.55855 0.634998,-0.58969 1.02164,-0.19675 -0.908098,1.71558 -2.516828,2.49413 -0.64264,0.31101 -1.47324,0.85284 -1.84577,1.20408 -0.81141,0.76502 -1.71774,1.03275 -1.89279,0.55914 -0.063,-0.1704 -0.18371,-0.35643 -0.2683,-0.41341 -0.20747,-0.13974 -0.28275,-2.16953 -0.085,-2.29175 0.0863,-0.0533 0.11071,-0.2808 0.0543,-0.50552 -0.0668,-0.26621 -0.0219,-0.43954 0.12904,-0.49745 0.14257,-0.0547 0.21841,-0.30596 0.19731,-0.65361 -0.0189,-0.31062 0.0342,-0.9357 0.11795,-1.38908 0.0837,-0.45339 0.15033,-0.99262 0.148,-1.19831 -0.002,-0.20568 0.0968,-0.43428 0.22028,-0.508 0.12348,-0.0737 0.26961,-0.31301 0.32471,-0.53177 0.12033,-0.47763 0.0594,-0.42275 -0.71535,0.64491 -0.33046,0.45536 -1.02786,1.3894 -1.54977,2.07564 -1.05253,1.38391 -1.36355,1.89923 -1.29702,2.14893 0.0747,0.28036 -0.54531,1.09161 -1.17669,1.5396 -0.32814,0.23283 -0.91149,0.6958 -1.29632,1.02881 -0.79321,0.68639 -1.48005,1.17252 -1.65662,1.17252 -0.0658,0 -0.2393,-0.11974 -0.38565,-0.26609 z m 5.76911,-6.37989 c 1.86187,-2.429 2.77822,-4.17173 2.8939,-5.50368 l 0.0919,-1.05834 h -0.92827 c -0.67435,0 -0.99779,0.0811 -1.18243,0.29634 -0.66158,0.77136 -1.34439,2.86557 -1.8334,5.62314 -0.10665,0.60141 -0.29234,1.28721 -0.41263,1.524 -0.1203,0.23679 -0.27747,0.62043 -0.34927,0.85253 -0.11577,0.37424 -0.0997,0.39643 0.1417,0.19606 0.14974,-0.12427 0.86005,-0.9928 1.57848,-1.93005 z m 3.52797,-5.04474 c -0.15543,-0.2515 0.38613,-1.1261 0.94268,-1.5224 0.28617,-0.20377 0.4959,-0.39489 0.46607,-0.42472 -0.0298,-0.0298 -0.39617,0.0188 -0.81408,0.10816 l -0.75985,0.1624 -0.0382,1.01838 c -0.0239,0.63905 0.0244,0.97973 0.12977,0.91461 0.0923,-0.0571 0.12545,-0.17247 0.0736,-0.25643 z m 2.92128,-2.70261 c 0.49577,-0.38997 0.46451,-0.40784 -0.26719,-0.15277 -0.2933,0.10225 -0.53327,0.25465 -0.53327,0.33867 0,0.25304 0.344,0.17315 0.80046,-0.1859 z m 10.154318,14.05008 c -0.20125,-0.28733 -0.24173,-0.67489 -0.17719,-1.69671 0.0481,-0.76075 0.009,-1.46356 -0.0915,-1.65153 -0.16433,-0.30705 -0.1087,-0.63112 0.29646,-1.72717 0.0516,-0.1397 0.11262,-0.7112 0.13551,-1.27 0.068,-1.66112 0.1546,-2.15441 0.54692,-3.11628 0.23746,-0.58219 0.33596,-1.0844 0.27084,-1.38088 -0.0565,-0.25706 -0.0227,-0.51517 0.0754,-0.57577 0.10993,-0.0679 0.025,-0.27451 -0.22262,-0.54157 -0.49996,-0.53918 -0.79187,-0.41313 -1.78201,0.76948 -1.21115,1.44659 -1.79892,2.58514 -2.03269,3.93747 -0.11849,0.68542 -0.32418,1.60769 -0.45709,2.04949 -0.13292,0.44181 -0.28876,1.14686 -0.34632,1.56679 -0.0855,0.62396 -0.20527,0.8257 -0.6552,1.10376 -0.80655,0.49848 -0.97936,0.75374 -0.53189,0.78566 0.20163,0.0144 0.69045,0.0816 1.08627,0.14929 0.75881,0.12985 0.98622,0.41354 0.33866,0.42248 -1.56889,0.0217 -2.49534,0.18617 -3.18014,0.56469 -0.81734,0.45177 -2.704188,0.78359 -2.704188,0.47556 0,-0.23602 0.280058,-0.39896 0.905628,-0.5269 0.53321,-0.10906 0.70732,-0.43949 0.8835,-1.67677 0.0443,-0.31102 0.19636,-0.78951 0.33795,-1.0633 0.14158,-0.2738 0.20965,-0.57512 0.15126,-0.66959 -0.0584,-0.0945 -0.0339,-0.26369 0.0544,-0.37603 0.18611,-0.23675 0.44912,-1.14893 0.39583,-1.37287 -0.02,-0.0839 0.0483,-0.54113 0.15167,-1.016 0.27874,-1.28017 0.38678,-2.44277 0.35715,-3.84314 -0.0198,-0.93694 -0.17493,-1.25095 -0.89615,-1.81425 -0.23801,-0.1859 -0.39403,-0.16495 -0.97367,0.13076 -0.71106,0.36276 -0.91683,0.25783 -0.3939,-0.20086 0.16298,-0.14296 0.82973,-0.5468 1.48166,-0.89742 0.65194,-0.35061 1.50617,-0.89578 1.89829,-1.21148 0.97436,-0.78445 2.51099,-1.39254 2.38374,-0.94332 -0.0198,0.0699 0.0682,0.31545 0.19551,0.54577 0.1504,0.27209 0.23297,0.99883 0.23574,2.07478 0.004,1.53547 0.0255,1.64057 0.29571,1.44389 0.1603,-0.11666 1.00386,-0.7555 1.87457,-1.41965 2.03218,-1.55009 2.93963,-2.04935 3.97434,-2.18661 0.77595,-0.10293 0.85207,-0.0799 1.06744,0.32249 0.32689,0.61079 0.15121,2.55588 -0.41748,4.62244 -0.25224,0.9166 -0.5232,1.81895 -0.60213,2.00522 -0.35932,0.84794 -0.53275,5.53398 -0.22334,6.03461 0.18763,0.30359 0.92605,0.12772 1.47038,-0.35021 0.41187,-0.36163 0.63169,-0.45213 0.81023,-0.33356 0.19869,0.13195 0.12407,0.26994 -0.39484,0.73007 -0.35192,0.31205 -0.86906,0.6132 -1.14921,0.66923 -0.28015,0.056 -0.79585,0.3321 -1.146,0.61349 -0.35015,0.28139 -1.01411,0.61866 -1.47546,0.74948 -0.46135,0.13083 -1.00136,0.2895 -1.20001,0.35261 -0.26346,0.0837 -0.43177,0.014 -0.62203,-0.25764 z m 8.29278,0.23036 c -0.0621,-0.0621 -0.11289,-0.29782 -0.11289,-0.52385 0,-0.26855 -0.11736,-0.44165 -0.33867,-0.49953 -0.40785,-0.10665 -0.48617,-0.88451 -0.26921,-2.67373 0.0452,-0.37253 0.12916,-1.17263 0.18663,-1.778 0.0575,-0.60536 0.16692,-1.25306 0.24321,-1.43933 0.0763,-0.18627 0.2313,-0.94827 0.34445,-1.69333 0.11315,-0.74507 0.27251,-1.43641 0.35413,-1.53631 0.3998,-0.4893 0.75935,-2.74358 0.48186,-3.02107 -0.13222,-0.13221 -1.89898,-0.13891 -2.48407,-0.009 -0.65429,0.1448 -0.77292,-0.18296 -0.15169,-0.41915 0.21925,-0.0834 0.76611,-0.5817 1.21525,-1.10742 0.79023,-0.92497 0.84131,-0.95435 1.58053,-0.90889 0.70445,0.0433 0.77348,0.0112 0.88677,-0.41238 0.0679,-0.25402 0.0537,-0.45936 -0.0318,-0.45936 -0.19832,0 -0.20199,-0.72818 -0.005,-0.9398 0.0825,-0.0885 0.11099,-0.60065 0.0634,-1.13815 -0.0736,-0.83098 -0.15874,-1.02869 -0.5688,-1.32068 -0.39412,-0.28064 -0.54831,-0.30806 -0.84358,-0.15003 -0.24685,0.1321 -0.41632,0.13836 -0.53495,0.0197 -0.34057,-0.34057 0.0162,-0.68003 0.83513,-0.79467 0.82648,-0.11569 2.33004,-0.72887 3.1002,-1.26432 0.23283,-0.16187 0.61383,-0.3529 0.84666,-0.42449 0.23284,-0.0716 0.60506,-0.2721 0.82717,-0.44555 0.4924,-0.38454 1.20483,-0.41974 1.20483,-0.0595 0,0.14071 -0.14684,0.57886 -0.32633,0.97367 -0.17948,0.3948 -0.37747,1.1942 -0.43999,1.77645 -0.0625,0.58225 -0.18237,1.1011 -0.26634,1.153 -0.084,0.0519 -0.15267,0.30888 -0.15267,0.57107 0,0.26219 -0.11501,0.8027 -0.25559,1.20113 -0.14057,0.39843 -0.28636,0.96046 -0.32397,1.24896 -0.0376,0.2885 -0.11728,0.64753 -0.17703,0.79785 -0.136,0.34215 0.49556,0.48869 2.10618,0.48869 1.2131,0 1.37904,-0.0944 1.86133,-1.05833 0.15419,-0.30819 0.36646,-0.46567 0.62769,-0.46567 0.4902,0 0.51387,0.37306 0.0638,1.00514 -0.30593,0.42964 -2.25097,1.53486 -2.70114,1.53486 -0.10809,0 -0.57245,0.1905 -1.03193,0.42333 -0.45947,0.23284 -0.98109,0.42334 -1.15916,0.42334 -0.39184,0 -0.58585,0.44474 -1.03418,2.37066 -0.53361,2.2923 -0.77742,4.38263 -0.67674,5.80221 0.11731,1.65407 0.32393,1.90795 1.41913,1.74372 0.82488,-0.1237 1.15708,-0.44404 1.37358,-1.32453 0.14707,-0.59812 0.25924,-0.65884 0.66669,-0.36091 0.30171,0.22062 0.30917,0.27907 0.0828,0.64896 -0.13683,0.22358 -0.56722,0.66016 -0.95643,0.97019 -0.38921,0.31003 -1.26551,1.02863 -1.94733,1.59688 -0.68183,0.56825 -1.48356,1.1588 -1.78161,1.31233 -0.54437,0.28041 -1.58984,0.37695 -1.80052,0.16626 z m 8.69244,-0.10627 c -0.23283,-0.1178 -0.42333,-0.30082 -0.42333,-0.40673 0,-0.1059 -0.0571,-0.2497 -0.127,-0.31955 -0.0699,-0.0699 -0.127,-0.3003 -0.127,-0.51212 0,-0.21181 -0.0877,-0.43935 -0.19499,-0.50562 -0.14133,-0.0873 -0.12906,-0.17164 0.0446,-0.30633 0.14309,-0.11098 0.24529,-0.51298 0.25374,-0.99811 0.008,-0.44676 0.10201,-0.90015 0.2094,-1.00754 0.10738,-0.10738 0.19524,-0.4086 0.19524,-0.66937 0,-0.26077 0.0844,-0.47413 0.18745,-0.47413 0.1042,0 0.1401,-0.1234 0.0808,-0.27786 -0.0586,-0.15283 0.0112,-0.45763 0.15512,-0.67734 0.14396,-0.21971 0.22251,-0.39947 0.17455,-0.39947 -0.13718,0 0.44395,-1.40814 0.70936,-1.71886 0.15919,-0.18636 0.17928,-0.31628 0.0603,-0.38983 -0.1199,-0.0741 -0.0993,-0.23247 0.0628,-0.48247 0.20895,-0.32234 0.2087,-0.41619 -0.002,-0.70087 -0.14389,-0.19453 -0.24314,-0.71963 -0.24314,-1.28643 0,-1.24581 -0.3958,-1.78553 -1.11023,-1.5139 -0.8091,0.30762 -1.33743,-0.18304 -0.54077,-0.50221 0.20955,-0.0839 0.9906,-0.39453 1.73567,-0.69017 0.74506,-0.29565 1.95501,-0.88072 2.68876,-1.30017 1.74821,-0.99936 1.82518,-0.91307 1.39017,1.55866 -0.13123,0.74566 -0.31643,1.54576 -0.41155,1.778 -0.0951,0.23224 -0.29452,0.99375 -0.4431,1.69225 -0.14858,0.6985 -0.37888,1.651 -0.51179,2.11667 -0.61659,2.16036 -0.7937,5.25791 -0.32115,5.61672 0.31506,0.23924 1.17267,-0.008 1.3151,-0.37922 0.0393,-0.10246 2.81438,-0.54976 -0.28952,0.77936 -0.48231,0.20653 -1.16879,0.63801 -1.52553,0.95884 -0.61177,0.5502 -1.93661,1.23995 -2.3711,1.23447 -0.10869,-0.001 -0.38813,-0.0989 -0.62096,-0.21667 z m 5.02829,-16.99166 c -0.0647,-0.0647 -0.11866,-0.31447 -0.11994,-0.55507 -0.005,-0.94291 -0.17137,-1.19944 -0.778,-1.19944 -0.38809,0 -0.63935,-0.10868 -0.78298,-0.33867 -0.28427,-0.45518 -0.84427,-0.42651 -1.65404,0.0847 -0.68493,0.43238 -1.18533,0.5457 -1.18533,0.26842 0,-0.35603 4.38031,-3.09219 5.33314,-3.33133 0.67639,-0.16977 0.69339,0.29325 0.0961,2.61783 -0.58318,2.26965 -0.72096,2.64158 -0.90895,2.45359 z"
       style="fill:#000000"
       id="path1" /></g></svg>
