<?xml version="1.0" encoding="UTF-8" standalone="no"?>
<!-- Created with Inkscape (http://www.inkscape.org/) -->

<svg
   xmlns:dc="http://purl.org/dc/elements/1.1/"
   xmlns:cc="http://creativecommons.org/ns#"
   xmlns:rdf="http://www.w3.org/1999/02/22-rdf-syntax-ns#"
   xmlns:svg="http://www.w3.org/2000/svg"
   xmlns="http://www.w3.org/2000/svg"
   xmlns:xlink="http://www.w3.org/1999/xlink"
   xmlns:sodipodi="http://sodipodi.sourceforge.net/DTD/sodipodi-0.dtd"
   xmlns:inkscape="http://www.inkscape.org/namespaces/inkscape"
   width="20.000004mm"
   height="250mm"
   viewBox="0 0 20.000004 250"
   id="svg2"
   version="1.1"
   inkscape:version="0.91+devel r"
   sodipodi:docname="wirebinding.svg">
  <defs
     id="defs4" />
  <sodipodi:namedview
     id="base"
     pagecolor="#ffffff"
     bordercolor="#666666"
     borderopacity="1.0"
     inkscape:pageopacity="0.0"
     inkscape:pageshadow="2"
     inkscape:zoom="1.4142136"
     inkscape:cx="33.412337"
     inkscape:cy="166.49191"
     inkscape:document-units="mm"
     inkscape:current-layer="layer2"
     showgrid="false"
     showguides="false"
     inkscape:guide-bbox="true"
     inkscape:snap-bbox="true"
     inkscape:snap-bbox-midpoints="true"
     inkscape:snap-center="false"
     inkscape:snap-object-midpoints="true"
     inkscape:snap-intersection-paths="true"
     inkscape:snap-bbox-edge-midpoints="true"
     inkscape:object-paths="true"
     inkscape:object-nodes="true"
     inkscape:window-width="1364"
     inkscape:window-height="747"
     inkscape:window-x="0"
     inkscape:window-y="19"
     inkscape:window-maximized="1"
     fit-margin-top="0"
     fit-margin-left="0"
     fit-margin-right="0"
     fit-margin-bottom="0"
     inkscape:snap-global="false">
    <sodipodi:guide
       position="10,-23.943791"
       orientation="1,0"
       id="guide4155"
       inkscape:label=""
       inkscape:color="rgb(0,0,255)" />
  </sodipodi:namedview>
  <metadata
     id="metadata7">
    <rdf:RDF>
      <cc:Work
         rdf:about="">
        <dc:format>image/svg+xml</dc:format>
        <dc:type
           rdf:resource="http://purl.org/dc/dcmitype/StillImage" />
        <dc:title />
      </cc:Work>
    </rdf:RDF>
  </metadata>
  <g
     inkscape:groupmode="layer"
     id="layer2"
     inkscape:label="rings"
     style="display:inline"
     transform="translate(-89.999997,211.74007)">
    <rect
       style="display:inline;opacity:1;fill:#999999;fill-opacity:1;fill-rule:nonzero;stroke:none;stroke-width:0.20871019;stroke-linecap:square;stroke-linejoin:miter;stroke-miterlimit:4;stroke-dasharray:none;stroke-opacity:1"
       id="rect4249-9"
       width="4"
       height="6.0000005"
       x="106"
       y="29.259935" />
    <path
       sodipodi:nodetypes="ccccc"
       inkscape:connector-curvature="0"
       id="path4251-6"
       d="m 106.52917,29.789102 3.47083,0 0,5.470833 -3.47083,0 z"
       style="display:inline;opacity:1;fill:#cccccc;fill-opacity:1;fill-rule:nonzero;stroke:none;stroke-width:0.20871019;stroke-linecap:square;stroke-linejoin:miter;stroke-miterlimit:4;stroke-dasharray:none;stroke-opacity:1" />
    <use
       x="0"
       y="0"
       xlink:href="#rect4249-9"
       id="use4285"
       transform="translate(-16.000003)"
       width="100%"
       height="100%" />
    <use
       x="0"
       y="0"
       xlink:href="#path4251-6"
       id="use4287"
       transform="translate(-16.000003)"
       width="100%"
       height="100%" />
    <path
       style="color:#000000;font-style:normal;font-variant:normal;font-weight:normal;font-stretch:normal;font-size:medium;line-height:normal;font-family:sans-serif;text-indent:0;text-align:start;text-decoration:none;text-decoration-line:none;text-decoration-style:solid;text-decoration-color:#000000;letter-spacing:normal;word-spacing:normal;text-transform:none;direction:ltr;block-progression:tb;writing-mode:lr-tb;baseline-shift:baseline;text-anchor:start;white-space:normal;shape-padding:0;clip-rule:nonzero;display:inline;overflow:visible;visibility:visible;opacity:1;isolation:auto;mix-blend-mode:normal;color-interpolation:sRGB;color-interpolation-filters:linearRGB;solid-color:#000000;solid-opacity:1;fill:#333333;fill-opacity:1;fill-rule:nonzero;stroke:none;stroke-width:1;stroke-linecap:round;stroke-linejoin:miter;stroke-miterlimit:4;stroke-dasharray:none;stroke-dashoffset:0;stroke-opacity:1;color-rendering:auto;image-rendering:auto;shape-rendering:auto;text-rendering:auto;enable-background:accumulate"
       d="m 99.871494,27.320915 c -2.321829,0 -4.423772,0.311032 -5.988265,0.834057 -0.782247,0.261512 -1.431514,0.57235 -1.91823,0.957048 -0.486716,0.384698 -0.837675,0.881882 -0.837675,1.46451 0,0.582628 0.350959,1.082395 0.837675,1.467094 0.41892,0.331112 0.964736,0.605007 1.605587,0.842325 l 0,-1.075903 c -0.410209,-0.17685 -0.748949,-0.365776 -0.984436,-0.551904 -0.347674,-0.274801 -0.458887,-0.503131 -0.458887,-0.681612 0,-0.178481 0.111213,-0.404745 0.458887,-0.679545 0.347674,-0.2748 0.905689,-0.55752 1.615405,-0.794784 1.419434,-0.47453 3.438448,-0.781347 5.669939,-0.781347 2.231486,0 4.252566,0.306817 5.672006,0.781347 0.70971,0.237264 1.26722,0.519984 1.61489,0.794784 0.34767,0.2748 0.45733,0.501064 0.45733,0.679545 0,0.178481 -0.10966,0.406811 -0.45733,0.681612 l 0,1.183907 c 0.22571,-0.124414 0.4377,-0.254658 0.6196,-0.398425 0.48672,-0.384699 0.83767,-0.884466 0.83767,-1.467094 0,-0.582628 -0.35095,-1.079812 -0.83767,-1.46451 -0.48672,-0.384698 -1.13598,-0.695536 -1.91823,-0.957048 -1.56449,-0.523025 -3.66644,-0.834057 -5.988266,-0.834057 z"
       id="ellipse4320"
       inkscape:connector-curvature="0" />
    <path
       inkscape:connector-curvature="0"
       id="path4291"
       d="m 99.572018,27.008716 c -2.356656,0 -4.490127,0.321325 -6.078088,0.865271 -0.793981,0.271972 -1.452462,0.597393 -1.946479,0.997479 -0.494017,0.400087 -0.85024,0.917694 -0.85024,1.523627 0,0.605934 0.356223,1.123542 0.85024,1.523628 0.469121,0.379924 1.090657,0.688562 1.83161,0.951798 l 0,-1.107116 c -0.512424,-0.20794 -0.925789,-0.436886 -1.203239,-0.661583 -0.352889,-0.285792 -0.463673,-0.521106 -0.463673,-0.706727 0,-0.18562 0.110784,-0.423084 0.463673,-0.708876 0.352889,-0.285793 0.919273,-0.578207 1.639636,-0.824963 1.440724,-0.493511 3.491596,-0.812064 5.75656,-0.812064 2.264962,0 4.316352,0.318553 5.757092,0.812064 0.72035,0.246756 1.28674,0.53917 1.63963,0.824963 0.35289,0.285792 0.46367,0.523256 0.46367,0.708876 0,0.143262 -0.0693,0.316835 -0.26173,0.519701 l 0,1.304353 c 0.15282,-0.09537 0.29603,-0.194815 0.42643,-0.300426 0.49402,-0.400086 0.85024,-0.917694 0.85024,-1.523628 0,-0.605933 -0.35622,-1.12354 -0.85024,-1.523627 -0.49401,-0.400086 -1.15302,-0.725507 -1.947,-0.997479 -1.58796,-0.543946 -3.72144,-0.865271 -6.078092,-0.865271 z"
       style="color:#000000;font-style:normal;font-variant:normal;font-weight:normal;font-stretch:normal;font-size:medium;line-height:normal;font-family:sans-serif;text-indent:0;text-align:start;text-decoration:none;text-decoration-line:none;text-decoration-style:solid;text-decoration-color:#000000;letter-spacing:normal;word-spacing:normal;text-transform:none;direction:ltr;block-progression:tb;writing-mode:lr-tb;baseline-shift:baseline;text-anchor:start;white-space:normal;shape-padding:0;clip-rule:nonzero;display:inline;overflow:visible;visibility:visible;opacity:1;isolation:auto;mix-blend-mode:normal;color-interpolation:sRGB;color-interpolation-filters:linearRGB;solid-color:#000000;solid-opacity:1;fill:#333333;fill-opacity:1;fill-rule:nonzero;stroke:none;stroke-width:1.02742398;stroke-linecap:round;stroke-linejoin:miter;stroke-miterlimit:4;stroke-dasharray:none;stroke-dashoffset:0;stroke-opacity:1;color-rendering:auto;image-rendering:auto;shape-rendering:auto;text-rendering:auto;enable-background:accumulate" />
    <path
       style="color:#000000;font-style:normal;font-variant:normal;font-weight:normal;font-stretch:normal;font-size:medium;line-height:normal;font-family:sans-serif;text-indent:0;text-align:start;text-decoration:none;text-decoration-line:none;text-decoration-style:solid;text-decoration-color:#000000;letter-spacing:normal;word-spacing:normal;text-transform:none;direction:ltr;block-progression:tb;writing-mode:lr-tb;baseline-shift:baseline;text-anchor:start;white-space:normal;shape-padding:0;clip-rule:nonzero;display:inline;overflow:visible;visibility:visible;opacity:1;isolation:auto;mix-blend-mode:normal;color-interpolation:sRGB;color-interpolation-filters:linearRGB;solid-color:#000000;solid-opacity:1;fill:#f2f2f2;fill-opacity:1;fill-rule:nonzero;stroke:none;stroke-width:1;stroke-linecap:round;stroke-linejoin:miter;stroke-miterlimit:4;stroke-dasharray:none;stroke-dashoffset:0;stroke-opacity:1;color-rendering:auto;image-rendering:auto;shape-rendering:auto;text-rendering:auto;enable-background:accumulate"
       d="m 99.572022,27.121443 c -2.321829,0 -4.423771,0.308966 -5.988264,0.831991 -0.782247,0.261512 -1.430997,0.574417 -1.917713,0.959115 -0.486717,0.384699 -0.837675,0.882398 -0.837675,1.465026 0,0.582629 0.350958,1.080329 0.837675,1.465027 0.462188,0.365311 1.074538,0.662078 1.804541,0.91519 l 0,-1.064535 c -0.504851,-0.199942 -0.912107,-0.420082 -1.185457,-0.636137 -0.347674,-0.2748 -0.45682,-0.501064 -0.45682,-0.679545 0,-0.178481 0.109146,-0.406812 0.45682,-0.681612 0.347674,-0.274801 0.905688,-0.555968 1.615405,-0.793233 1.419433,-0.47453 3.439996,-0.780831 5.671488,-0.780831 2.231488,0 4.252568,0.306301 5.672008,0.780831 0.70971,0.237265 1.26773,0.518432 1.6154,0.793233 0.34768,0.2748 0.45682,0.503131 0.45682,0.681612 0,0.137752 -0.0683,0.304649 -0.25786,0.499712 l 0,1.254186 c 0.15056,-0.0917 0.29165,-0.187322 0.42013,-0.288871 0.48672,-0.384698 0.83767,-0.882398 0.83767,-1.465027 0,-0.582628 -0.35095,-1.080327 -0.83767,-1.465026 -0.48671,-0.384698 -1.13598,-0.697603 -1.91823,-0.959115 -1.56449,-0.523025 -3.66644,-0.831991 -5.988268,-0.831991 z"
       id="ellipse4317"
       inkscape:connector-curvature="0" />
    <use
       x="0"
       y="0"
       xlink:href="#ellipse4320"
       id="use4297"
       transform="translate(-0.1,1.9889741)"
       width="100%"
       height="100%" />
    <use
       x="0"
       y="0"
       xlink:href="#path4291"
       id="use4299"
       transform="translate(0,1.9889741)"
       width="100%"
       height="100%" />
    <use
       x="0"
       y="0"
       xlink:href="#ellipse4317"
       id="use4301"
       transform="translate(0,1.9889741)"
       width="100%"
       height="100%" />
    <use
       x="0"
       y="0"
       xlink:href="#rect4249-9"
       id="use4308"
       transform="translate(0,-14)"
       width="100%"
       height="100%" />
    <use
       x="0"
       y="0"
       xlink:href="#path4251-6"
       id="use4310"
       transform="translate(0,-14)"
       width="100%"
       height="100%" />
    <use
       x="0"
       y="0"
       xlink:href="#use4285"
       id="use4312"
       transform="translate(0,-14)"
       width="100%"
       height="100%" />
    <use
       x="0"
       y="0"
       xlink:href="#use4287"
       id="use4314"
       transform="translate(0,-14)"
       width="100%"
       height="100%" />
    <use
       x="0"
       y="0"
       xlink:href="#ellipse4320"
       id="use4316"
       transform="translate(0,-14)"
       width="100%"
       height="100%" />
    <use
       x="0"
       y="0"
       xlink:href="#path4291"
       id="use4318"
       transform="translate(0,-14)"
       width="100%"
       height="100%" />
    <use
       x="0"
       y="0"
       xlink:href="#ellipse4317"
       id="use4320"
       transform="translate(0,-14)"
       width="100%"
       height="100%" />
    <use
       x="0"
       y="0"
       xlink:href="#use4297"
       id="use4322"
       transform="translate(0,-14)"
       width="100%"
       height="100%" />
    <use
       x="0"
       y="0"
       xlink:href="#use4299"
       id="use4324"
       transform="translate(0,-14)"
       width="100%"
       height="100%" />
    <use
       x="0"
       y="0"
       xlink:href="#use4301"
       id="use4326"
       transform="translate(0,-14)"
       width="100%"
       height="100%" />
    <use
       x="0"
       y="0"
       xlink:href="#use4308"
       id="use4328"
       transform="translate(0,-14)"
       width="100%"
       height="100%" />
    <use
       x="0"
       y="0"
       xlink:href="#use4310"
       id="use4330"
       transform="translate(0,-14)"
       width="100%"
       height="100%" />
    <use
       x="0"
       y="0"
       xlink:href="#use4312"
       id="use4332"
       transform="translate(0,-14)"
       width="100%"
       height="100%" />
    <use
       x="0"
       y="0"
       xlink:href="#use4314"
       id="use4334"
       transform="translate(0,-14)"
       width="100%"
       height="100%" />
    <use
       x="0"
       y="0"
       xlink:href="#use4316"
       id="use4336"
       transform="translate(0,-14)"
       width="100%"
       height="100%" />
    <use
       x="0"
       y="0"
       xlink:href="#use4318"
       id="use4338"
       transform="translate(0,-14)"
       width="100%"
       height="100%" />
    <use
       x="0"
       y="0"
       xlink:href="#use4320"
       id="use4340"
       transform="translate(0,-14)"
       width="100%"
       height="100%" />
    <use
       x="0"
       y="0"
       xlink:href="#use4322"
       id="use4342"
       transform="translate(0,-14)"
       width="100%"
       height="100%" />
    <use
       x="0"
       y="0"
       xlink:href="#use4324"
       id="use4344"
       transform="translate(0,-14)"
       width="100%"
       height="100%" />
    <use
       x="0"
       y="0"
       xlink:href="#use4326"
       id="use4346"
       transform="translate(0,-14)"
       width="100%"
       height="100%" />
    <use
       x="0"
       y="0"
       xlink:href="#use4328"
       id="use4348"
       transform="translate(0,-14)"
       width="100%"
       height="100%" />
    <use
       x="0"
       y="0"
       xlink:href="#use4330"
       id="use4350"
       transform="translate(0,-14)"
       width="100%"
       height="100%" />
    <use
       x="0"
       y="0"
       xlink:href="#use4332"
       id="use4352"
       transform="translate(0,-14)"
       width="100%"
       height="100%" />
    <use
       x="0"
       y="0"
       xlink:href="#use4334"
       id="use4354"
       transform="translate(0,-14)"
       width="100%"
       height="100%" />
    <use
       x="0"
       y="0"
       xlink:href="#use4336"
       id="use4356"
       transform="translate(0,-14)"
       width="100%"
       height="100%" />
    <use
       x="0"
       y="0"
       xlink:href="#use4338"
       id="use4358"
       transform="translate(0,-14)"
       width="100%"
       height="100%" />
    <use
       x="0"
       y="0"
       xlink:href="#use4340"
       id="use4360"
       transform="translate(0,-14)"
       width="100%"
       height="100%" />
    <use
       x="0"
       y="0"
       xlink:href="#use4342"
       id="use4362"
       transform="translate(0,-14)"
       width="100%"
       height="100%" />
    <use
       x="0"
       y="0"
       xlink:href="#use4344"
       id="use4364"
       transform="translate(0,-14)"
       width="100%"
       height="100%" />
    <use
       x="0"
       y="0"
       xlink:href="#use4346"
       id="use4366"
       transform="translate(0,-14)"
       width="100%"
       height="100%" />
    <use
       x="0"
       y="0"
       xlink:href="#use4348"
       id="use4368"
       transform="translate(0,-14)"
       width="100%"
       height="100%" />
    <use
       x="0"
       y="0"
       xlink:href="#use4350"
       id="use4370"
       transform="translate(0,-14)"
       width="100%"
       height="100%" />
    <use
       x="0"
       y="0"
       xlink:href="#use4352"
       id="use4372"
       transform="translate(0,-14)"
       width="100%"
       height="100%" />
    <use
       x="0"
       y="0"
       xlink:href="#use4354"
       id="use4374"
       transform="translate(0,-14)"
       width="100%"
       height="100%" />
    <use
       x="0"
       y="0"
       xlink:href="#use4356"
       id="use4376"
       transform="translate(0,-14)"
       width="100%"
       height="100%" />
    <use
       x="0"
       y="0"
       xlink:href="#use4358"
       id="use4378"
       transform="translate(0,-14)"
       width="100%"
       height="100%" />
    <use
       x="0"
       y="0"
       xlink:href="#use4360"
       id="use4380"
       transform="translate(0,-14)"
       width="100%"
       height="100%" />
    <use
       x="0"
       y="0"
       xlink:href="#use4362"
       id="use4382"
       transform="translate(0,-14)"
       width="100%"
       height="100%" />
    <use
       x="0"
       y="0"
       xlink:href="#use4364"
       id="use4384"
       transform="translate(0,-14)"
       width="100%"
       height="100%" />
    <use
       x="0"
       y="0"
       xlink:href="#use4366"
       id="use4386"
       transform="translate(0,-14)"
       width="100%"
       height="100%" />
    <use
       x="0"
       y="0"
       xlink:href="#use4368"
       id="use4388"
       transform="translate(0,-14)"
       width="100%"
       height="100%" />
    <use
       x="0"
       y="0"
       xlink:href="#use4370"
       id="use4390"
       transform="translate(0,-14)"
       width="100%"
       height="100%" />
    <use
       x="0"
       y="0"
       xlink:href="#use4372"
       id="use4392"
       transform="translate(0,-14)"
       width="100%"
       height="100%" />
    <use
       x="0"
       y="0"
       xlink:href="#use4374"
       id="use4394"
       transform="translate(0,-14)"
       width="100%"
       height="100%" />
    <use
       x="0"
       y="0"
       xlink:href="#use4376"
       id="use4396"
       transform="translate(0,-14)"
       width="100%"
       height="100%" />
    <use
       x="0"
       y="0"
       xlink:href="#use4378"
       id="use4398"
       transform="translate(0,-14)"
       width="100%"
       height="100%" />
    <use
       x="0"
       y="0"
       xlink:href="#use4380"
       id="use4400"
       transform="translate(0,-14)"
       width="100%"
       height="100%" />
    <use
       x="0"
       y="0"
       xlink:href="#use4382"
       id="use4402"
       transform="translate(0,-14)"
       width="100%"
       height="100%" />
    <use
       x="0"
       y="0"
       xlink:href="#use4384"
       id="use4404"
       transform="translate(0,-14)"
       width="100%"
       height="100%" />
    <use
       x="0"
       y="0"
       xlink:href="#use4386"
       id="use4406"
       transform="translate(0,-14)"
       width="100%"
       height="100%" />
    <use
       x="0"
       y="0"
       xlink:href="#use4388"
       id="use4408"
       transform="translate(0,-14)"
       width="100%"
       height="100%" />
    <use
       x="0"
       y="0"
       xlink:href="#use4390"
       id="use4410"
       transform="translate(0,-14)"
       width="100%"
       height="100%" />
    <use
       x="0"
       y="0"
       xlink:href="#use4392"
       id="use4412"
       transform="translate(0,-14)"
       width="100%"
       height="100%" />
    <use
       x="0"
       y="0"
       xlink:href="#use4394"
       id="use4414"
       transform="translate(0,-14)"
       width="100%"
       height="100%" />
    <use
       x="0"
       y="0"
       xlink:href="#use4396"
       id="use4416"
       transform="translate(0,-14)"
       width="100%"
       height="100%" />
    <use
       x="0"
       y="0"
       xlink:href="#use4398"
       id="use4418"
       transform="translate(0,-14)"
       width="100%"
       height="100%" />
    <use
       x="0"
       y="0"
       xlink:href="#use4400"
       id="use4420"
       transform="translate(0,-14)"
       width="100%"
       height="100%" />
    <use
       x="0"
       y="0"
       xlink:href="#use4402"
       id="use4422"
       transform="translate(0,-14)"
       width="100%"
       height="100%" />
    <use
       x="0"
       y="0"
       xlink:href="#use4404"
       id="use4424"
       transform="translate(0,-14)"
       width="100%"
       height="100%" />
    <use
       x="0"
       y="0"
       xlink:href="#use4406"
       id="use4426"
       transform="translate(0,-14)"
       width="100%"
       height="100%" />
    <use
       x="0"
       y="0"
       xlink:href="#use4408"
       id="use4428"
       transform="translate(0,-14)"
       width="100%"
       height="100%" />
    <use
       x="0"
       y="0"
       xlink:href="#use4410"
       id="use4430"
       transform="translate(0,-14)"
       width="100%"
       height="100%" />
    <use
       x="0"
       y="0"
       xlink:href="#use4412"
       id="use4432"
       transform="translate(0,-14)"
       width="100%"
       height="100%" />
    <use
       x="0"
       y="0"
       xlink:href="#use4414"
       id="use4434"
       transform="translate(0,-14)"
       width="100%"
       height="100%" />
    <use
       x="0"
       y="0"
       xlink:href="#use4416"
       id="use4436"
       transform="translate(0,-14)"
       width="100%"
       height="100%" />
    <use
       x="0"
       y="0"
       xlink:href="#use4418"
       id="use4438"
       transform="translate(0,-14)"
       width="100%"
       height="100%" />
    <use
       x="0"
       y="0"
       xlink:href="#use4420"
       id="use4440"
       transform="translate(0,-14)"
       width="100%"
       height="100%" />
    <use
       x="0"
       y="0"
       xlink:href="#use4422"
       id="use4442"
       transform="translate(0,-14)"
       width="100%"
       height="100%" />
    <use
       x="0"
       y="0"
       xlink:href="#use4424"
       id="use4444"
       transform="translate(0,-14)"
       width="100%"
       height="100%" />
    <use
       x="0"
       y="0"
       xlink:href="#use4426"
       id="use4446"
       transform="translate(0,-14)"
       width="100%"
       height="100%" />
    <use
       x="0"
       y="0"
       xlink:href="#use4428"
       id="use4448"
       transform="translate(0,-14)"
       width="100%"
       height="100%" />
    <use
       x="0"
       y="0"
       xlink:href="#use4430"
       id="use4450"
       transform="translate(0,-14)"
       width="100%"
       height="100%" />
    <use
       x="0"
       y="0"
       xlink:href="#use4432"
       id="use4452"
       transform="translate(0,-14)"
       width="100%"
       height="100%" />
    <use
       x="0"
       y="0"
       xlink:href="#use4434"
       id="use4454"
       transform="translate(0,-14)"
       width="100%"
       height="100%" />
    <use
       x="0"
       y="0"
       xlink:href="#use4436"
       id="use4456"
       transform="translate(0,-14)"
       width="100%"
       height="100%" />
    <use
       x="0"
       y="0"
       xlink:href="#use4438"
       id="use4458"
       transform="translate(0,-14)"
       width="100%"
       height="100%" />
    <use
       x="0"
       y="0"
       xlink:href="#use4440"
       id="use4460"
       transform="translate(0,-14)"
       width="100%"
       height="100%" />
    <use
       x="0"
       y="0"
       xlink:href="#use4442"
       id="use4462"
       transform="translate(0,-14)"
       width="100%"
       height="100%" />
    <use
       x="0"
       y="0"
       xlink:href="#use4444"
       id="use4464"
       transform="translate(0,-14)"
       width="100%"
       height="100%" />
    <use
       x="0"
       y="0"
       xlink:href="#use4446"
       id="use4466"
       transform="translate(0,-14)"
       width="100%"
       height="100%" />
    <use
       x="0"
       y="0"
       xlink:href="#use4448"
       id="use4468"
       transform="translate(0,-14)"
       width="100%"
       height="100%" />
    <use
       x="0"
       y="0"
       xlink:href="#use4450"
       id="use4470"
       transform="translate(0,-14)"
       width="100%"
       height="100%" />
    <use
       x="0"
       y="0"
       xlink:href="#use4452"
       id="use4472"
       transform="translate(0,-14)"
       width="100%"
       height="100%" />
    <use
       x="0"
       y="0"
       xlink:href="#use4454"
       id="use4474"
       transform="translate(0,-14)"
       width="100%"
       height="100%" />
    <use
       x="0"
       y="0"
       xlink:href="#use4456"
       id="use4476"
       transform="translate(0,-14)"
       width="100%"
       height="100%" />
    <use
       x="0"
       y="0"
       xlink:href="#use4458"
       id="use4478"
       transform="translate(0,-14)"
       width="100%"
       height="100%" />
    <use
       x="0"
       y="0"
       xlink:href="#use4460"
       id="use4480"
       transform="translate(0,-14)"
       width="100%"
       height="100%" />
    <use
       x="0"
       y="0"
       xlink:href="#use4462"
       id="use4482"
       transform="translate(0,-14)"
       width="100%"
       height="100%" />
    <use
       x="0"
       y="0"
       xlink:href="#use4464"
       id="use4484"
       transform="translate(0,-14)"
       width="100%"
       height="100%" />
    <use
       x="0"
       y="0"
       xlink:href="#use4466"
       id="use4486"
       transform="translate(0,-14)"
       width="100%"
       height="100%" />
    <use
       x="0"
       y="0"
       xlink:href="#use4468"
       id="use4488"
       transform="translate(0,-14)"
       width="100%"
       height="100%" />
    <use
       x="0"
       y="0"
       xlink:href="#use4470"
       id="use4490"
       transform="translate(0,-14)"
       width="100%"
       height="100%" />
    <use
       x="0"
       y="0"
       xlink:href="#use4472"
       id="use4492"
       transform="translate(0,-14)"
       width="100%"
       height="100%" />
    <use
       x="0"
       y="0"
       xlink:href="#use4474"
       id="use4494"
       transform="translate(0,-14)"
       width="100%"
       height="100%" />
    <use
       x="0"
       y="0"
       xlink:href="#use4476"
       id="use4496"
       transform="translate(0,-14)"
       width="100%"
       height="100%" />
    <use
       x="0"
       y="0"
       xlink:href="#use4478"
       id="use4498"
       transform="translate(0,-14)"
       width="100%"
       height="100%" />
    <use
       x="0"
       y="0"
       xlink:href="#use4480"
       id="use4500"
       transform="translate(0,-14)"
       width="100%"
       height="100%" />
    <use
       x="0"
       y="0"
       xlink:href="#use4482"
       id="use4502"
       transform="translate(0,-14)"
       width="100%"
       height="100%" />
    <use
       x="0"
       y="0"
       xlink:href="#use4484"
       id="use4504"
       transform="translate(0,-14)"
       width="100%"
       height="100%" />
    <use
       x="0"
       y="0"
       xlink:href="#use4486"
       id="use4506"
       transform="translate(0,-14)"
       width="100%"
       height="100%" />
    <use
       x="0"
       y="0"
       xlink:href="#use4488"
       id="use4508"
       transform="translate(0,-14)"
       width="100%"
       height="100%" />
    <use
       x="0"
       y="0"
       xlink:href="#use4490"
       id="use4510"
       transform="translate(0,-14)"
       width="100%"
       height="100%" />
    <use
       x="0"
       y="0"
       xlink:href="#use4492"
       id="use4512"
       transform="translate(0,-14)"
       width="100%"
       height="100%" />
    <use
       x="0"
       y="0"
       xlink:href="#use4494"
       id="use4514"
       transform="translate(0,-14)"
       width="100%"
       height="100%" />
    <use
       x="0"
       y="0"
       xlink:href="#use4496"
       id="use4516"
       transform="translate(0,-14)"
       width="100%"
       height="100%" />
    <use
       x="0"
       y="0"
       xlink:href="#use4498"
       id="use4518"
       transform="translate(0,-14)"
       width="100%"
       height="100%" />
    <use
       x="0"
       y="0"
       xlink:href="#use4500"
       id="use4520"
       transform="translate(0,-14)"
       width="100%"
       height="100%" />
    <use
       x="0"
       y="0"
       xlink:href="#use4502"
       id="use4522"
       transform="translate(0,-14)"
       width="100%"
       height="100%" />
    <use
       x="0"
       y="0"
       xlink:href="#use4504"
       id="use4524"
       transform="translate(0,-14)"
       width="100%"
       height="100%" />
    <use
       x="0"
       y="0"
       xlink:href="#use4506"
       id="use4526"
       transform="translate(0,-14)"
       width="100%"
       height="100%" />
    <use
       x="0"
       y="0"
       xlink:href="#use4508"
       id="use4528"
       transform="translate(0,-14)"
       width="100%"
       height="100%" />
    <use
       x="0"
       y="0"
       xlink:href="#use4510"
       id="use4530"
       transform="translate(0,-14)"
       width="100%"
       height="100%" />
    <use
       x="0"
       y="0"
       xlink:href="#use4512"
       id="use4532"
       transform="translate(0,-14)"
       width="100%"
       height="100%" />
    <use
       x="0"
       y="0"
       xlink:href="#use4514"
       id="use4534"
       transform="translate(0,-14)"
       width="100%"
       height="100%" />
    <use
       x="0"
       y="0"
       xlink:href="#use4516"
       id="use4536"
       transform="translate(0,-14)"
       width="100%"
       height="100%" />
    <use
       x="0"
       y="0"
       xlink:href="#use4518"
       id="use4538"
       transform="translate(0,-14)"
       width="100%"
       height="100%" />
    <use
       x="0"
       y="0"
       xlink:href="#use4520"
       id="use4540"
       transform="translate(0,-14)"
       width="100%"
       height="100%" />
    <use
       x="0"
       y="0"
       xlink:href="#use4522"
       id="use4542"
       transform="translate(0,-14)"
       width="100%"
       height="100%" />
    <use
       x="0"
       y="0"
       xlink:href="#use4524"
       id="use4544"
       transform="translate(0,-14)"
       width="100%"
       height="100%" />
    <use
       x="0"
       y="0"
       xlink:href="#use4526"
       id="use4546"
       transform="translate(0,-14)"
       width="100%"
       height="100%" />
    <use
       x="0"
       y="0"
       xlink:href="#use4528"
       id="use4548"
       transform="translate(0,-14)"
       width="100%"
       height="100%" />
    <use
       x="0"
       y="0"
       xlink:href="#use4530"
       id="use4550"
       transform="translate(0,-14)"
       width="100%"
       height="100%" />
    <use
       x="0"
       y="0"
       xlink:href="#use4532"
       id="use4552"
       transform="translate(0,-14)"
       width="100%"
       height="100%" />
    <use
       x="0"
       y="0"
       xlink:href="#use4534"
       id="use4554"
       transform="translate(0,-14)"
       width="100%"
       height="100%" />
    <use
       x="0"
       y="0"
       xlink:href="#use4536"
       id="use4556"
       transform="translate(0,-14)"
       width="100%"
       height="100%" />
    <use
       x="0"
       y="0"
       xlink:href="#use4538"
       id="use4558"
       transform="translate(0,-14)"
       width="100%"
       height="100%" />
    <use
       x="0"
       y="0"
       xlink:href="#use4540"
       id="use4560"
       transform="translate(0,-14)"
       width="100%"
       height="100%" />
    <use
       x="0"
       y="0"
       xlink:href="#use4542"
       id="use4562"
       transform="translate(0,-14)"
       width="100%"
       height="100%" />
    <use
       x="0"
       y="0"
       xlink:href="#use4544"
       id="use4564"
       transform="translate(0,-14)"
       width="100%"
       height="100%" />
    <use
       x="0"
       y="0"
       xlink:href="#use4546"
       id="use4566"
       transform="translate(0,-14)"
       width="100%"
       height="100%" />
    <use
       x="0"
       y="0"
       xlink:href="#use4548"
       id="use4568"
       transform="translate(0,-14)"
       width="100%"
       height="100%" />
    <use
       x="0"
       y="0"
       xlink:href="#use4550"
       id="use4570"
       transform="translate(0,-14)"
       width="100%"
       height="100%" />
    <use
       x="0"
       y="0"
       xlink:href="#use4552"
       id="use4572"
       transform="translate(0,-14)"
       width="100%"
       height="100%" />
    <use
       x="0"
       y="0"
       xlink:href="#use4554"
       id="use4574"
       transform="translate(0,-14)"
       width="100%"
       height="100%" />
    <use
       x="0"
       y="0"
       xlink:href="#use4556"
       id="use4576"
       transform="translate(0,-14)"
       width="100%"
       height="100%" />
    <use
       x="0"
       y="0"
       xlink:href="#use4558"
       id="use4578"
       transform="translate(0,-14)"
       width="100%"
       height="100%" />
    <use
       x="0"
       y="0"
       xlink:href="#use4560"
       id="use4580"
       transform="translate(0,-14)"
       width="100%"
       height="100%" />
    <use
       x="0"
       y="0"
       xlink:href="#use4562"
       id="use4582"
       transform="translate(0,-14)"
       width="100%"
       height="100%" />
    <use
       x="0"
       y="0"
       xlink:href="#use4564"
       id="use4584"
       transform="translate(0,-14)"
       width="100%"
       height="100%" />
    <use
       x="0"
       y="0"
       xlink:href="#use4566"
       id="use4586"
       transform="translate(0,-14)"
       width="100%"
       height="100%" />
    <use
       x="0"
       y="0"
       xlink:href="#use4568"
       id="use4588"
       transform="translate(0,-14)"
       width="100%"
       height="100%" />
    <use
       x="0"
       y="0"
       xlink:href="#use4570"
       id="use4590"
       transform="translate(0,-14)"
       width="100%"
       height="100%" />
    <use
       x="0"
       y="0"
       xlink:href="#use4572"
       id="use4592"
       transform="translate(0,-14)"
       width="100%"
       height="100%" />
    <use
       x="0"
       y="0"
       xlink:href="#use4574"
       id="use4594"
       transform="translate(0,-14)"
       width="100%"
       height="100%" />
    <use
       x="0"
       y="0"
       xlink:href="#use4576"
       id="use4596"
       transform="translate(0,-14)"
       width="100%"
       height="100%" />
    <use
       x="0"
       y="0"
       xlink:href="#use4578"
       id="use4598"
       transform="translate(0,-14)"
       width="100%"
       height="100%" />
    <use
       x="0"
       y="0"
       xlink:href="#use4580"
       id="use4600"
       transform="translate(0,-14)"
       width="100%"
       height="100%" />
    <use
       x="0"
       y="0"
       xlink:href="#use4582"
       id="use4602"
       transform="translate(0,-14)"
       width="100%"
       height="100%" />
    <use
       x="0"
       y="0"
       xlink:href="#use4584"
       id="use4604"
       transform="translate(0,-14)"
       width="100%"
       height="100%" />
    <use
       x="0"
       y="0"
       xlink:href="#use4586"
       id="use4606"
       transform="translate(0,-14)"
       width="100%"
       height="100%" />
    <use
       x="0"
       y="0"
       xlink:href="#use4588"
       id="use4608"
       transform="translate(0,-14)"
       width="100%"
       height="100%" />
    <use
       x="0"
       y="0"
       xlink:href="#use4590"
       id="use4610"
       transform="translate(0,-14)"
       width="100%"
       height="100%" />
    <use
       x="0"
       y="0"
       xlink:href="#use4592"
       id="use4612"
       transform="translate(0,-14)"
       width="100%"
       height="100%" />
    <use
       x="0"
       y="0"
       xlink:href="#use4594"
       id="use4614"
       transform="translate(0,-14)"
       width="100%"
       height="100%" />
    <use
       x="0"
       y="0"
       xlink:href="#use4596"
       id="use4616"
       transform="translate(0,-14)"
       width="100%"
       height="100%" />
    <use
       x="0"
       y="0"
       xlink:href="#use4598"
       id="use4618"
       transform="translate(0,-14)"
       width="100%"
       height="100%" />
    <use
       x="0"
       y="0"
       xlink:href="#use4600"
       id="use4620"
       transform="translate(0,-14)"
       width="100%"
       height="100%" />
    <use
       x="0"
       y="0"
       xlink:href="#use4602"
       id="use4622"
       transform="translate(0,-14)"
       width="100%"
       height="100%" />
    <use
       x="0"
       y="0"
       xlink:href="#use4604"
       id="use4624"
       transform="translate(0,-14)"
       width="100%"
       height="100%" />
    <use
       x="0"
       y="0"
       xlink:href="#use4606"
       id="use4626"
       transform="translate(0,-14)"
       width="100%"
       height="100%" />
    <use
       x="0"
       y="0"
       xlink:href="#use4608"
       id="use4628"
       transform="translate(0,-14)"
       width="100%"
       height="100%" />
    <use
       x="0"
       y="0"
       xlink:href="#use4610"
       id="use4630"
       transform="translate(0,-14)"
       width="100%"
       height="100%" />
    <use
       x="0"
       y="0"
       xlink:href="#use4612"
       id="use4632"
       transform="translate(0,-14)"
       width="100%"
       height="100%" />
    <use
       x="0"
       y="0"
       xlink:href="#use4614"
       id="use4634"
       transform="translate(0,-14)"
       width="100%"
       height="100%" />
    <use
       x="0"
       y="0"
       xlink:href="#use4616"
       id="use4636"
       transform="translate(0,-14)"
       width="100%"
       height="100%" />
    <use
       x="0"
       y="0"
       xlink:href="#use4618"
       id="use4638"
       transform="translate(0,-14)"
       width="100%"
       height="100%" />
    <use
       x="0"
       y="0"
       xlink:href="#use4620"
       id="use4640"
       transform="translate(0,-14)"
       width="100%"
       height="100%" />
    <use
       x="0"
       y="0"
       xlink:href="#use4622"
       id="use4642"
       transform="translate(0,-14)"
       width="100%"
       height="100%" />
    <use
       x="0"
       y="0"
       xlink:href="#use4624"
       id="use4644"
       transform="translate(0,-14)"
       width="100%"
       height="100%" />
    <use
       x="0"
       y="0"
       xlink:href="#use4626"
       id="use4646"
       transform="translate(0,-14)"
       width="100%"
       height="100%" />
  </g>
</svg>
